<?xml version="1.0" encoding="UTF-8"?><svg id="_レイヤー_2" xmlns="http://www.w3.org/2000/svg" width="100" height="100" xmlns:xlink="http://www.w3.org/1999/xlink" viewBox="0 0 100 100"><defs><style>.cls-1,.cls-2{stroke-width:0px;}.cls-1{fill:#c58be0;}.cls-3{filter:url(#luminosity-invert-noclip-2);}.cls-2{fill:#fff;}.cls-4{mask:url(#mask-1);}.cls-5{mask:url(#mask);}.cls-6{filter:url(#luminosity-invert-noclip);}</style><filter id="luminosity-invert-noclip" x="0" y="0" width="100" height="100" color-interpolation-filters="sRGB" filterUnits="userSpaceOnUse"><feColorMatrix result="cm" values="-1 0 0 0 1 0 -1 0 0 1 0 0 -1 0 1 0 0 0 1 0"/><feFlood flood-color="#fff" result="bg"/><feBlend in="cm" in2="bg"/></filter><filter id="luminosity-invert-noclip-2" x="15" y="25.5" width="70" height="49" color-interpolation-filters="sRGB" filterUnits="userSpaceOnUse"><feColorMatrix result="cm" values="-1 0 0 0 1 0 -1 0 0 1 0 0 -1 0 1 0 0 0 1 0"/><feFlood flood-color="#fff" result="bg"/><feBlend in="cm" in2="bg"/></filter><mask id="mask-1" x="15" y="25.5" width="70" height="49" maskUnits="userSpaceOnUse"><g class="cls-3"><polygon class="cls-2" points="43 60.5 61.19 50 43 39.5 43 60.5"/></g></mask><mask id="mask" x="0" y="0" width="100" height="100" maskUnits="userSpaceOnUse"><g class="cls-6"><g class="cls-4"><path class="cls-2" d="M83.54,33.15c-.81-3.01-3.18-5.38-6.19-6.19-5.46-1.46-27.35-1.46-27.35-1.46,0,0-21.89,0-27.35,1.46-3.01.81-5.38,3.18-6.19,6.19-1.46,5.46-1.46,16.85-1.46,16.85,0,0,0,11.39,1.46,16.85.81,3.01,3.18,5.38,6.19,6.19,5.46,1.46,27.35,1.46,27.35,1.46,0,0,21.89,0,27.35-1.46,3.01-.81,5.38-3.18,6.19-6.19,1.46-5.46,1.46-16.85,1.46-16.85,0,0,0-11.39-1.46-16.85Z"/></g></g></mask></defs><g id="_レイヤー_2-2"><g id="icon_ytb"><g class="cls-5"><path class="cls-1" d="M100,50c0,27.61-22.45,50-50.13,50-66.5-2.63-66.48-97.38,0-100,27.69,0,50.13,22.39,50.13,50Z"/></g></g></g></svg>