<svg xmlns="http://www.w3.org/2000/svg" width="589.656" height="589.562" viewBox="0 0 589.656 589.562">
  <defs>
    <style>
      .cls-1 {
        fill: #fff;
        fill-rule: evenodd;
      }
    </style>
  </defs>
  <path id="シェイプ_1" data-name="シェイプ 1" class="cls-1" d="M481.554,298.14a33.888,33.888,0,0,0-33.888,33.889V521.8H68.12V135.475H237.561a33.888,33.888,0,0,0,0-67.777H34.232A33.888,33.888,0,0,0,.344,101.586v454.1a33.888,33.888,0,0,0,33.888,33.888H481.554a33.888,33.888,0,0,0,33.888-33.888V332.029A33.888,33.888,0,0,0,481.554,298.14ZM556.111-.078H366.339a33.89,33.89,0,0,0-23.964,57.846l68.725,68.7-177.443,181.9A33.888,33.888,0,0,0,281.6,356.27c0.195-.195.384-0.389,0.572-0.59L459.028,174.4l73.137,73.13A33.892,33.892,0,0,0,590,223.583V33.81A33.889,33.889,0,0,0,556.111-.078Z" transform="translate(-0.344)"/>
</svg>
